<?xml version="1.0" standalone="no"?>
<!DOCTYPE svg PUBLIC "-//W3C//DTD SVG 20010904//EN"
 "http://www.w3.org/TR/2001/REC-SVG-20010904/DTD/svg10.dtd">
<svg version="1.0" xmlns="http://www.w3.org/2000/svg"
 width="646.000000pt" height="230.000000pt" viewBox="0 0 646.000000 230.000000"
 preserveAspectRatio="xMidYMid meet">

<g transform="translate(0.000000,230.000000) scale(0.100000,-0.100000)"
fill="#000000" stroke="none">
<path d="M5568 2149 c-81 -41 -91 -56 -68 -100 15 -28 41 -24 131 21 86 44 98
58 81 96 -16 35 -52 30 -144 -17z"/>
<path d="M125 1916 l-25 -25 0 -858 c0 -761 2 -861 16 -881 l15 -22 628 0
c596 0 629 1 644 18 15 17 17 77 17 658 l0 639 -245 245 -245 245 -390 3 -390
3 -25 -25z m705 -319 c0 -160 3 -207 14 -223 13 -17 31 -19 228 -24 l213 -5 0
-540 0 -540 -142 -3 -143 -3 0 220 0 220 -26 20 c-25 20 -40 21 -214 21 -164
0 -190 -2 -209 -17 -20 -17 -21 -28 -23 -238 l-3 -220 -142 -3 -143 -3 0 771
0 770 295 0 295 0 0 -203z m350 -109 c0 -5 -47 -8 -105 -8 l-105 0 0 112 0
113 105 -105 c58 -58 105 -108 105 -112z m-320 -1058 l0 -170 -100 0 -100 0 0
170 0 170 100 0 100 0 0 -170z"/>
<path d="M1958 1927 c-72 -21 -122 -59 -149 -114 -23 -45 -24 -60 -27 -270 -3
-185 -1 -232 13 -280 33 -114 131 -170 281 -161 99 7 159 37 199 103 30 48 30
50 30 189 l0 141 -125 3 c-137 3 -150 -2 -150 -59 0 -37 17 -47 80 -51 l55 -3
3 -37 c5 -61 -15 -116 -51 -139 -45 -29 -119 -22 -155 15 l-27 26 -3 218 c-2
202 -1 219 17 249 27 43 85 61 141 44 45 -13 65 -39 75 -94 8 -43 28 -57 82
-57 52 0 63 14 63 80 0 87 -50 153 -140 185 -61 22 -158 27 -212 12z"/>
<path d="M2460 1927 l-25 -13 -3 -388 c-1 -279 1 -393 9 -402 9 -11 61 -14
250 -14 l239 0 11 27 c13 34 2 80 -21 93 -10 6 -91 10 -179 10 l-161 0 0 110
0 110 90 0 c77 0 93 3 110 20 24 24 25 48 4 78 -14 20 -23 22 -110 22 l-94 0
0 115 0 115 174 0 174 0 12 29 c12 29 7 64 -12 89 -15 17 -433 17 -468 -1z"/>
<path d="M3160 1920 c-151 -52 -199 -234 -92 -351 25 -28 68 -56 141 -91 58
-27 118 -61 133 -75 75 -71 21 -173 -92 -173 -47 0 -83 15 -149 63 -47 34 -74
30 -96 -13 -23 -44 -18 -66 19 -104 55 -54 133 -78 241 -74 111 4 171 30 219
96 27 39 31 53 35 124 6 145 -39 207 -208 285 -152 71 -187 121 -121 177 44
37 103 42 175 16 33 -11 67 -23 77 -26 46 -16 79 84 39 120 -52 47 -221 61
-321 26z"/>
<path d="M3586 1924 c-9 -9 -16 -32 -16 -54 0 -60 17 -70 121 -70 l89 0 0
-335 c0 -377 -5 -355 79 -355 73 0 71 -9 71 361 l0 329 89 0 c82 0 91 2 105
22 22 30 20 81 -2 101 -16 15 -50 17 -270 17 -214 0 -253 -2 -266 -16z"/>
<path d="M4383 1930 c-84 -18 -148 -71 -174 -147 -20 -55 -19 -459 0 -527 31
-106 133 -163 276 -154 131 9 211 70 234 179 14 63 14 419 0 479 -15 66 -54
116 -113 145 -58 28 -157 39 -223 25z m133 -135 c57 -24 64 -55 64 -277 0
-164 -3 -198 -18 -228 -44 -88 -184 -77 -212 17 -7 24 -10 109 -8 235 l3 197
29 30 c40 42 85 50 142 26z"/>
<path d="M4871 1921 c-21 -21 -21 -28 -21 -394 0 -429 -2 -417 79 -417 26 0
52 5 59 12 8 8 12 60 12 170 l0 158 48 0 48 0 88 -170 c96 -187 107 -198 172
-167 65 32 60 57 -60 274 l-46 83 40 20 c82 42 124 159 100 275 -10 48 -20 68
-54 101 -22 23 -59 47 -81 54 -22 7 -113 14 -201 17 -155 5 -163 4 -183 -16z
m302 -122 c65 -18 93 -90 66 -168 -16 -46 -53 -61 -154 -61 l-85 0 0 113 c0
63 3 117 7 120 10 11 124 8 166 -4z"/>
<path d="M5530 1928 l-25 -14 -3 -389 c-3 -439 -7 -415 74 -415 77 0 74 -17
74 414 0 318 -2 386 -14 395 -22 19 -78 23 -106 9z"/>
<path d="M5971 1923 c-16 -13 -50 -113 -131 -377 -61 -198 -110 -370 -110
-382 0 -34 39 -56 91 -52 l43 3 22 77 c13 43 25 82 29 88 10 15 255 13 260 -2
2 -7 14 -47 27 -88 22 -72 24 -75 57 -78 42 -4 89 15 96 39 8 26 -214 748
-237 771 -25 25 -118 25 -147 1z m118 -338 c23 -82 44 -158 47 -167 5 -16 -4
-18 -90 -18 -63 0 -96 4 -96 11 0 6 13 57 29 113 16 55 37 127 46 160 9 32 18
57 20 55 1 -2 22 -71 44 -154z"/>
<path d="M1810 947 l-25 -13 -3 -388 c-1 -279 1 -393 9 -402 9 -11 61 -14 250
-14 l239 0 12 25 c7 17 8 35 2 57 l-10 33 -177 3 -177 2 0 115 0 115 93 0
c104 0 127 12 127 63 0 47 -22 57 -126 57 l-94 0 0 115 0 115 175 0 175 0 10
26 c15 38 12 62 -10 84 -19 19 -33 20 -232 20 -152 0 -220 -4 -238 -13z"/>
<path d="M2420 949 c-13 -5 -28 -15 -32 -22 -4 -7 -8 -182 -8 -389 0 -329 2
-379 16 -392 19 -20 107 -22 123 -3 7 9 12 95 13 246 l3 231 119 -222 c65
-123 128 -233 139 -245 15 -17 32 -23 63 -23 80 0 74 -35 74 410 l0 398 -31
11 c-32 11 -74 6 -96 -12 -10 -7 -13 -68 -13 -240 0 -140 -4 -227 -9 -221 -5
5 -58 103 -117 218 -59 114 -116 219 -128 232 -24 27 -80 38 -116 23z"/>
<path d="M3488 950 c-63 -11 -122 -46 -152 -89 -40 -58 -48 -121 -44 -359 3
-232 7 -250 62 -310 46 -51 93 -67 201 -67 90 0 105 3 153 28 73 39 112 100
112 178 0 62 -9 76 -56 84 -48 9 -77 -14 -91 -70 -17 -68 -49 -95 -113 -95
-41 0 -56 5 -82 29 l-33 29 -3 219 c-2 203 -1 220 17 250 14 22 32 35 59 43
78 20 143 -16 157 -88 4 -20 11 -43 17 -49 13 -16 100 -17 116 -1 17 17 15
113 -3 147 -21 41 -88 96 -132 109 -58 16 -133 21 -185 12z"/>
<path d="M4111 943 c-15 -13 -51 -117 -131 -378 -60 -198 -110 -370 -110 -382
0 -33 40 -55 92 -51 l43 3 20 70 c33 115 17 105 160 105 92 0 127 -3 130 -12
2 -7 14 -47 27 -88 l23 -75 39 -3 c45 -4 83 13 92 40 3 10 -34 145 -81 301
-145 473 -142 462 -170 475 -39 18 -109 15 -134 -5z m119 -338 c23 -82 44
-158 46 -167 5 -16 -4 -18 -90 -18 -62 0 -96 4 -96 11 0 8 48 182 86 312 3 10
7 17 9 15 1 -2 22 -70 45 -153z"/>
<path d="M4715 943 c-109 -39 -155 -102 -155 -209 1 -117 43 -166 214 -247
101 -48 146 -91 146 -138 0 -43 -17 -69 -55 -85 -71 -29 -132 -15 -224 51 -42
31 -46 31 -76 0 -84 -84 43 -195 225 -197 105 0 155 17 211 72 103 103 89 292
-28 373 -21 14 -81 46 -133 70 -107 50 -133 73 -132 117 1 38 7 47 44 66 44
23 126 20 188 -7 58 -25 74 -21 99 23 40 70 -32 118 -184 125 -69 3 -102 -1
-140 -14z"/>
<path d="M5363 948 c-26 -12 -18 10 -153 -432 -55 -181 -98 -337 -95 -346 12
-38 118 -53 136 -20 5 8 18 48 29 88 l21 72 128 0 128 0 25 -87 25 -88 46 -3
c39 -3 51 1 72 22 24 24 24 26 10 73 -156 517 -216 700 -236 715 -24 20 -100
23 -136 6z m116 -358 c22 -80 41 -151 41 -158 0 -9 -27 -12 -96 -12 -72 0 -95
3 -91 13 2 6 24 83 48 169 24 87 47 152 50 145 4 -7 25 -77 48 -157z"/>
</g>
</svg>
